<?xml version="1.0" encoding="UTF-8" standalone="no"?>
<!DOCTYPE svg PUBLIC "-//W3C//DTD SVG 1.1//EN" "http://www.w3.org/Graphics/SVG/1.1/DTD/svg11.dtd">
<svg width="100%" height="100%" viewBox="0 0 600 600" version="1.1" xmlns="http://www.w3.org/2000/svg" xmlns:xlink="http://www.w3.org/1999/xlink" xml:space="preserve" xmlns:serif="http://www.serif.com/" style="fill-rule:evenodd;clip-rule:evenodd;stroke-linecap:round;stroke-linejoin:round;stroke-miterlimit:1.5;">
    <g id="Artboard1" transform="matrix(0.585938,0,0,1,0,0)">
        <rect x="0" y="0" width="1024" height="600" style="fill:none;"/>
        <g transform="matrix(0.903896,0,0,0.903896,49.2051,80.9238)">
            <g transform="matrix(1.70667,0,0,1,-323.215,-8)">
                <g transform="matrix(1,0,0,1,-11.0743,-64.7607)">
                    <path d="M472.434,403.124C472.08,416.912 478.203,424.431 482.656,433.567C481.548,429.041 465.759,421.229 448.92,413.182L438.816,425.105C451.707,436.651 462.959,450.373 475.849,457.109C492.704,466.279 504.404,464.896 505.291,441.366C506.36,431.926 507.275,431.097 504.063,420.14" style="stroke:white;stroke-width:2.77px;"/>
                </g>
                <g transform="matrix(-0.218225,0.814427,-0.814427,-0.218225,904.812,35.7416)">
                    <path d="M481.309,464.169C479.203,461.234 477.203,465.013 475.234,470.786C490.958,486.346 504.022,501.005 535.808,505.318C540.598,503.004 543.903,499.726 543.074,493.764L481.309,464.169Z" style="stroke:white;stroke-width:3.28px;"/>
                </g>
                <g transform="matrix(-0.218225,0.814427,-0.814427,-0.218225,904.812,35.7416)">
                    <path d="M501.669,436.195C500.517,446.512 498.904,452.269 496.787,453.018L498.125,459.789L511.537,463.151L514.848,460.954C514.722,456.147 517.342,450.136 520.081,444.071C510.507,444.125 506.005,440.225 501.669,436.195Z" style="stroke:white;stroke-width:3.28px;"/>
                </g>
                <g transform="matrix(-0.218225,0.814427,-0.814427,-0.218225,896.508,30.8978)">
                    <path d="M499.787,441.396C492.031,443.278 486.132,446.572 484.309,452.967C499.016,465.587 513.927,478.024 535.808,484.196C541.717,485.115 545.927,484.819 546.074,481.617C533.951,472.97 521.212,464.731 518.099,450.131C509.274,450.005 504.665,445.562 499.787,441.396Z" style="stroke:white;stroke-width:3.28px;"/>
                </g>
                <g transform="matrix(-0.218225,0.814427,-0.814427,-0.218225,904.812,35.7416)">
                    <path d="M535.808,490.201C536.814,488.637 536.59,486.554 535.808,484.235C533.242,483.087 531.872,484.605 530.793,486.773L530.238,480.68C530.025,482.206 528.435,482.553 525.969,482.152L526.329,476.449C523.365,478.293 521.715,478.559 521.261,477.385C520.45,475.303 520.56,473.385 522.23,471.745L516.954,472.327L519.743,467.941C514.401,467.45 510.344,468.035 512,475.6C510.175,477.749 508.741,476.746 506.48,474.023C500.944,460.019 510.93,463.091 519.743,467.941L516.329,460.604C516.828,457.539 517.309,455.659 521.458,457.135C524.266,458.129 523.502,458.38 522.539,461.913C521.4,465.723 523.804,467.139 519.743,467.941C516.728,470.905 508.945,482.966 517.088,481.729" style="fill:none;stroke:white;stroke-width:3.28px;"/>
                </g>
            </g>
            <g transform="matrix(1.70667,0,0,1,-347.108,4)">
                <g transform="matrix(1,0,0,1,-19.5954,-64.4665)">
                    <path d="M512,409.941C516.089,433.685 523.431,448.515 532.335,459.067C524.011,475.127 522.777,489.865 520.683,504.763L538.051,512.208L555.562,473.988C560.687,465.022 561.131,455.542 555.562,445.402C555.925,431.137 552.63,420.241 546.92,411.567" style="stroke:white;stroke-width:2.77px;"/>
                </g>
                <path d="M481.309,464.169C479.203,461.234 477.203,465.013 475.234,470.786C490.958,486.346 504.022,501.005 535.808,505.318C540.598,503.004 543.903,499.726 543.074,493.764L481.309,464.169Z" style="stroke:white;stroke-width:2.77px;"/>
                <path d="M501.669,436.195C500.517,446.512 498.904,452.269 496.787,453.018L498.125,459.789L511.537,463.151L514.848,460.954C514.722,456.147 517.342,450.136 520.081,444.071C510.507,444.125 506.005,440.225 501.669,436.195Z" style="stroke:white;stroke-width:2.77px;"/>
                <g transform="matrix(1,0,0,1,-3,11)">
                    <path d="M499.787,441.396C492.031,443.278 486.132,446.572 484.309,452.967C499.016,465.587 513.927,478.024 535.808,484.196C541.717,485.115 545.927,484.819 546.074,481.617C533.951,472.97 521.212,464.731 518.099,450.131C509.274,450.005 504.665,445.562 499.787,441.396Z" style="stroke:white;stroke-width:2.77px;"/>
                </g>
                <path d="M535.808,490.201C536.814,488.637 536.59,486.554 535.808,484.235C533.242,483.087 531.872,484.605 530.793,486.773L530.238,480.68C530.025,482.206 528.435,482.553 525.969,482.152L526.329,476.449C523.365,478.293 521.715,478.559 521.261,477.385C520.45,475.303 520.56,473.385 522.23,471.745L516.954,472.327L519.743,467.941C516.284,470.146 513.563,472.643 512,475.6C509.329,477.646 507.653,476.613 506.48,474.023C508.176,465.982 512.967,464.77 519.743,467.941L519.378,458.836C519.878,455.771 521.341,453.906 525.49,455.382C528.298,456.376 529.464,458.476 528.501,462.009C527.362,465.819 523.804,467.139 519.743,467.941C526.659,471.028 534.183,475.629 537.033,468.6" style="fill:none;stroke:white;stroke-width:2.77px;"/>
            </g>
            <g transform="matrix(1.45173,-0.525779,0.89733,0.850621,-329.181,275.09)">
                <path d="M463.8,350.947C480.86,359.564 490.439,360.632 482.298,372.821C480.255,378.154 481.784,381.298 485.12,383.335C490.843,386.13 496.009,386.792 500.458,384.715C506.11,380.868 508.911,371.781 502.35,370.25C490.687,367.718 495.697,375.131 505.84,374.531C507.958,370.923 509.088,367.229 505.706,363.143C495.879,352.952 496.824,359.727 488.308,348.218" style="stroke:white;stroke-width:2.77px;"/>
            </g>
            <g transform="matrix(1.64851,0.258819,-0.441718,0.965926,-174.43,-180.444)">
                <path d="M423.023,362.947C395.369,353.702 372.215,339.681 353.689,320.749C343.856,308.993 337.085,296.995 341.232,284.135C344.986,269.699 355.038,261.861 373.252,262.572C373.252,262.572 383.795,263.599 390.134,264.226C396.473,264.853 397.706,265.721 397.465,259.184C397.465,259.184 397.226,244.982 397.17,241.657C397.152,240.59 397.525,239.553 398.217,238.741C405.87,230.252 449.263,226.67 517,226.464C560.973,227.695 610.547,227.647 629.904,234.493C634.248,236.097 637.078,240.302 636.928,244.93C634.225,326.774 616.627,381.159 577.753,396.273L577.753,397.961C577.753,399.892 576.504,401.602 574.663,402.188C531.252,415.928 492.322,417.024 459.308,402.393C457.711,401.676 456.686,400.087 456.692,398.337C456.691,397.322 456.694,396.426 456.694,396.426C449.364,392.372 438.277,382.367 423.023,362.947Z" style="fill:white;stroke:white;stroke-width:2.77px;"/>
            </g>
            <g transform="matrix(1.64851,0.258819,-0.441718,0.965926,-174.43,-180.444)">
                <path d="M384.146,324.283C383.012,324 381.938,323.518 380.972,322.86C369.445,315.012 360.968,307.211 358.064,299.527C356.981,296.676 356.998,293.525 358.113,290.687C363.444,276.862 372.601,277.805 382.175,285.793C383.412,286.82 384.472,288.043 385.313,289.414C390.872,298.542 393.304,307.468 394.948,316.344C395.124,317.299 395.176,318.273 395.101,319.241C394.665,325.478 390.048,325.79 384.146,324.283Z" style="stroke:white;stroke-width:2.77px;"/>
            </g>
            <g transform="matrix(2.07148,0.325225,-0.55505,1.21376,-353.374,-309.64)">
                <ellipse cx="527.122" cy="312.255" rx="11.323" ry="20.209" style="fill:none;"/>
                <clipPath id="_clip1">
                    <ellipse cx="527.122" cy="312.255" rx="11.323" ry="20.209"/>
                </clipPath>
                <g clip-path="url(#_clip1)">
                    <g transform="matrix(1.96826,-2.77556e-16,3.29496e-16,1.87133,-560.691,-283.275)">
                        <ellipse cx="554.198" cy="322.36" rx="5.315" ry="10.105" style="stroke:black;stroke-width:0.92px;"/>
                    </g>
                </g>
                <ellipse cx="527.122" cy="312.255" rx="11.323" ry="20.209" style="fill:none;stroke:black;stroke-width:2.2px;"/>
            </g>
            <g transform="matrix(2.07148,0.325225,-0.55505,1.21376,-276.838,-300.908)">
                <ellipse cx="527.122" cy="312.255" rx="11.323" ry="20.209" style="fill:none;"/>
                <clipPath id="_clip2">
                    <ellipse cx="527.122" cy="312.255" rx="11.323" ry="20.209"/>
                </clipPath>
                <g clip-path="url(#_clip2)">
                    <g transform="matrix(1.96826,-2.77556e-16,3.29496e-16,1.87133,-560.691,-283.275)">
                        <ellipse cx="554.198" cy="322.36" rx="5.315" ry="10.105" style="stroke:black;stroke-width:0.92px;"/>
                    </g>
                </g>
                <ellipse cx="527.122" cy="312.255" rx="11.323" ry="20.209" style="fill:none;stroke:black;stroke-width:2.2px;"/>
            </g>
            <g transform="matrix(2.09418,-0.270737,0.462058,1.22706,-708.381,-18.0981)">
                <path d="M551.671,367.011C545.675,367.728 539.984,366.09 534.311,364.314C533.087,363.974 531.787,364.501 531.146,365.597C530.504,366.694 530.681,368.085 531.577,368.985C537.976,375.553 548.17,377.776 556.71,373.253" style="fill:none;stroke:black;stroke-width:2.2px;"/>
            </g>
            <g transform="matrix(1.70667,0,0,1,-342.115,-64.7607)">
                <path d="M427.57,223.592C418.05,209.867 411.129,193.838 413.406,169.66C415.324,157.419 417.577,145.305 427.57,136.13C437.809,127.034 441.908,142.251 444.51,163.397C444.781,169.32 441.89,173.585 438.816,177.754C435.789,191.18 439.391,189.995 456.098,159.926C458.202,153.255 458.376,146.444 453.63,139.273C443.162,114.543 447.519,106.09 473.089,120.926C484.005,127.249 472.571,142.198 473.089,141.536C461.053,163.057 439.66,207.153 449.021,204.686L456.837,193.329C465.944,179.943 474.994,169.594 483.949,164.39C495.159,157.242 507.5,151.669 522.268,149.476C536.526,147.296 544.801,148.212 541.252,155.244C536.844,158.035 535.184,160.754 535.056,163.432C530.877,178.451 521.057,176.164 512,176.216C499.442,174.295 498.517,181.818 503.479,194.119L512,215.863C520.66,233.441 540.702,254.947 572.182,263.139C624.457,278.458 658.999,286.231 602.32,277.068C509.145,255.952 448.12,237.865 427.57,223.592Z" style="stroke:white;stroke-width:2.77px;"/>
            </g>
            <g transform="matrix(1.64851,0.258819,-0.441718,0.965926,-183.825,-168.387)">
                <path d="M488.643,313.271L453.297,330.362C444.602,335.829 445.468,340.803 450.891,345.543C466.446,355.535 484.584,365.984 482.298,372.821C480.255,378.154 481.784,381.298 485.12,383.335C490.843,386.13 496.009,386.792 500.458,384.715C506.11,380.868 508.911,371.781 502.35,370.25C490.687,367.718 495.697,375.131 505.84,374.531C507.958,370.923 509.088,367.229 505.706,363.143C488.619,362.27 480.046,350.801 472.359,338.229C480.046,337.636 488.004,338.329 494.137,330.362" style="fill:white;stroke:black;stroke-width:2.77px;"/>
            </g>
        </g>
    </g>
</svg>
