<?xml version="1.0" encoding="UTF-8" standalone="no"?>
<!DOCTYPE svg PUBLIC "-//W3C//DTD SVG 1.1//EN" "http://www.w3.org/Graphics/SVG/1.1/DTD/svg11.dtd">
<svg width="100%" height="100%" viewBox="0 0 500 500" version="1.1" xmlns="http://www.w3.org/2000/svg" xmlns:xlink="http://www.w3.org/1999/xlink" xml:space="preserve" xmlns:serif="http://www.serif.com/" style="fill-rule:evenodd;clip-rule:evenodd;stroke-linejoin:round;stroke-miterlimit:2;">
    <rect id="Artboard1" x="0" y="0" width="500" height="500" style="fill:none;"/>
    <g id="Artboard11" serif:id="Artboard1">
        <g transform="matrix(-0.999997,-0.00250443,0.00250443,-0.999997,524.877,499.189)">
            <g transform="matrix(0.944137,0.329552,-0.329552,0.944137,58.2963,-89.6308)">
                <g transform="matrix(80,0,0,80,293.529,127.139)">
                    <path d="M0.068,-0L0.505,-0L0.505,-0.079L0.156,-0.079L0.156,-0.321L0.487,-0.321L0.487,-0.399L0.156,-0.399L0.156,-0.625L0.505,-0.625L0.505,-0.705L0.068,-0.705L0.068,-0Z" style="fill:white;fill-rule:nonzero;"/>
                </g>
            </g>
            <g transform="matrix(0.612087,0.79079,-0.79079,0.612087,259.786,-220.849)">
                <g transform="matrix(80,0,0,80,355.002,154.372)">
                    <path d="M0.068,-0L0.156,-0L0.156,-0.279L0.325,-0.279L0.476,-0L0.579,-0L0.416,-0.292C0.503,-0.32 0.557,-0.396 0.557,-0.494L0.557,-0.495C0.557,-0.622 0.468,-0.705 0.333,-0.705L0.068,-0.705L0.068,-0ZM0.156,-0.356L0.156,-0.626L0.321,-0.626C0.411,-0.626 0.466,-0.577 0.466,-0.493L0.466,-0.492C0.466,-0.405 0.415,-0.356 0.325,-0.356L0.156,-0.356Z" style="fill:white;fill-rule:nonzero;"/>
                </g>
            </g>
            <g transform="matrix(0.212177,0.977231,-0.977231,0.212177,517.516,-213.792)">
                <g transform="matrix(80,0,0,80,391.354,214.073)">
                    <rect x="0.068" y="-0.705" width="0.088" height="0.705" style="fill:white;fill-rule:nonzero;"/>
                </g>
            </g>
            <g transform="matrix(-0.271947,0.962312,-0.962312,-0.271947,752.574,-60.0493)">
                <g transform="matrix(80,0,0,80,399.002,254.661)">
                    <path d="M0.363,0.012C0.51,0.012 0.623,-0.076 0.65,-0.21L0.651,-0.215L0.562,-0.215L0.561,-0.211C0.53,-0.118 0.461,-0.069 0.363,-0.069C0.223,-0.069 0.131,-0.181 0.131,-0.353L0.131,-0.353C0.131,-0.524 0.222,-0.635 0.363,-0.635C0.462,-0.635 0.531,-0.585 0.559,-0.5L0.562,-0.489L0.651,-0.489L0.65,-0.494C0.623,-0.627 0.509,-0.716 0.363,-0.716C0.167,-0.716 0.041,-0.575 0.041,-0.353L0.041,-0.353C0.041,-0.131 0.167,0.012 0.363,0.012Z" style="fill:white;fill-rule:nonzero;"/>
                </g>
            </g>
            <g transform="matrix(-0.773111,0.634271,-0.634271,-0.773111,863.584,344.377)">
                <g transform="matrix(80,0,0,80,370.198,326.648)">
                    <path d="M0.299,0.012C0.46,0.012 0.559,-0.067 0.559,-0.192L0.559,-0.193C0.559,-0.3 0.499,-0.359 0.354,-0.391L0.276,-0.408C0.184,-0.428 0.142,-0.464 0.142,-0.521L0.142,-0.522C0.142,-0.59 0.203,-0.635 0.297,-0.635C0.387,-0.635 0.447,-0.593 0.458,-0.521L0.458,-0.514L0.546,-0.514L0.546,-0.521C0.538,-0.637 0.438,-0.716 0.3,-0.716C0.155,-0.716 0.052,-0.635 0.052,-0.52L0.052,-0.519C0.052,-0.416 0.116,-0.354 0.254,-0.324L0.332,-0.307C0.429,-0.285 0.469,-0.25 0.469,-0.188L0.469,-0.188C0.469,-0.115 0.405,-0.069 0.304,-0.069C0.202,-0.069 0.133,-0.113 0.123,-0.184L0.122,-0.19L0.034,-0.19L0.035,-0.184C0.043,-0.063 0.146,0.012 0.299,0.012Z" style="fill:white;fill-rule:nonzero;"/>
                </g>
            </g>
            <g transform="matrix(-0.997345,0.0728151,-0.0728151,-0.997345,649.841,709.633)">
                <g transform="matrix(80,0,0,80,311.986,366.662)">
                    <path d="M0.363,0.012C0.51,0.012 0.623,-0.076 0.65,-0.21L0.651,-0.215L0.562,-0.215L0.561,-0.211C0.53,-0.118 0.461,-0.069 0.363,-0.069C0.223,-0.069 0.131,-0.181 0.131,-0.353L0.131,-0.353C0.131,-0.524 0.222,-0.635 0.363,-0.635C0.462,-0.635 0.531,-0.585 0.559,-0.5L0.562,-0.489L0.651,-0.489L0.65,-0.494C0.623,-0.627 0.509,-0.716 0.363,-0.716C0.167,-0.716 0.041,-0.575 0.041,-0.353L0.041,-0.353C0.041,-0.131 0.167,0.012 0.363,0.012Z" style="fill:white;fill-rule:nonzero;"/>
                </g>
            </g>
            <g transform="matrix(-0.841749,-0.539869,0.539869,-0.841749,234.07,798.822)">
                <g transform="matrix(80,0,0,80,234.114,365.105)">
                    <path d="M0.068,-0L0.156,-0L0.156,-0.321L0.543,-0.321L0.543,-0L0.631,-0L0.631,-0.705L0.543,-0.705L0.543,-0.4L0.156,-0.4L0.156,-0.705L0.068,-0.705L0.068,-0Z" style="fill:white;fill-rule:nonzero;"/>
                </g>
            </g>
            <g transform="matrix(-0.303153,-0.952942,0.952942,-0.303153,-79.3217,575.397)">
                <g transform="matrix(80,0,0,80,170.721,316.701)">
                    <path d="M0.068,-0L0.15,-0L0.15,-0.544L0.153,-0.544L0.378,-0L0.453,-0L0.678,-0.544L0.681,-0.544L0.681,-0L0.763,-0L0.763,-0.705L0.661,-0.705L0.417,-0.111L0.414,-0.111L0.17,-0.705L0.068,-0.705L0.068,-0Z" style="fill:white;fill-rule:nonzero;"/>
                </g>
            </g>
            <g transform="matrix(0.226671,-0.973971,0.973971,0.226671,-103.174,329.795)">
                <g transform="matrix(80,0,0,80,156.094,229.869)">
                    <rect x="0.068" y="-0.705" width="0.088" height="0.705" style="fill:white;fill-rule:nonzero;"/>
                </g>
            </g>
            <g transform="matrix(0.662641,-0.748937,0.748937,0.662641,-86.0161,188.763)">
                <g transform="matrix(80,0,0,80,166.519,189.859)">
                    <path d="M0.068,-0L0.305,-0C0.515,-0 0.638,-0.13 0.638,-0.353L0.638,-0.354C0.638,-0.575 0.514,-0.705 0.305,-0.705L0.068,-0.705L0.068,-0ZM0.156,-0.079L0.156,-0.625L0.299,-0.625C0.459,-0.625 0.548,-0.528 0.548,-0.353L0.548,-0.352C0.548,-0.177 0.459,-0.079 0.299,-0.079L0.156,-0.079Z" style="fill:white;fill-rule:nonzero;"/>
                </g>
            </g>
            <g transform="matrix(0.960603,-0.277924,0.277924,0.960603,-30.0294,66.5338)">
                <g transform="matrix(80,0,0,80,219.665,139.188)">
                    <path d="M0.247,-0L0.334,-0L0.334,-0.625L0.557,-0.625L0.557,-0.705L0.024,-0.705L0.024,-0.625L0.247,-0.625L0.247,-0Z" style="fill:white;fill-rule:nonzero;"/>
                </g>
            </g>
        </g>
    </g>
</svg>
