<svg width="28" height="19" viewBox="0 0 28 19" fill="none" xmlns="http://www.w3.org/2000/svg">
<g clip-path="url(#clip0_491_58)">
<path d="M22.3399 18.3346H26.8501C26.9498 18.3349 27.0478 18.3084 27.1338 18.2578C27.2197 18.2072 27.2905 18.1344 27.3385 18.0471C27.3866 17.9597 27.4103 17.8611 27.407 17.7614C27.4037 17.6618 27.3736 17.5649 27.3199 17.4809L16.7407 0.408081L11.382 1.48871L21.6139 17.9291C21.6903 18.0529 21.7971 18.1551 21.9242 18.2261C22.0512 18.2971 22.1944 18.3344 22.3399 18.3346Z" fill="white"/>
<path d="M15.5971 18.3346H11.0216C10.9299 18.3339 10.8401 18.3086 10.7615 18.2614C10.6829 18.2141 10.6184 18.1466 10.5748 18.0659C10.5312 17.9853 10.51 17.8943 10.5135 17.8027C10.5171 17.7111 10.5451 17.622 10.5948 17.5449L20.4586 2.15378C20.5541 2.00546 20.6793 1.87848 20.8262 1.78079C20.9731 1.6831 21.1386 1.61683 21.3123 1.58611L27.0658 0.510523C27.1107 0.500983 27.1575 0.505076 27.2001 0.522277C27.2426 0.539478 27.2791 0.569003 27.3048 0.607067C27.3305 0.645131 27.3442 0.689998 27.3442 0.735915C27.3442 0.781833 27.3305 0.826707 27.3048 0.864784L16.327 17.9376C16.2492 18.0605 16.1414 18.1614 16.0136 18.2309C15.8859 18.3003 15.7425 18.336 15.5971 18.3346Z" fill="white"/>
<path d="M5.14004 18.3346H0.64562C0.545937 18.3349 0.448001 18.3084 0.362106 18.2578C0.276211 18.2072 0.205529 18.1344 0.15749 18.0471C0.109451 17.9598 0.0858285 17.8611 0.0891063 17.7615C0.092384 17.6618 0.122441 17.5649 0.176117 17.4809L9.993 2.15378C10.0885 2.00546 10.2136 1.87848 10.3605 1.78079C10.5074 1.6831 10.6729 1.61683 10.8466 1.58611L16.6002 0.510523C16.6451 0.500983 16.6918 0.505076 16.7344 0.522277C16.777 0.539478 16.8135 0.569003 16.8391 0.607067C16.8648 0.645131 16.8785 0.689998 16.8786 0.735915C16.8786 0.781833 16.8649 0.826707 16.8392 0.864784L5.86137 17.9376C5.78436 18.0592 5.67784 18.1594 5.55173 18.2288C5.42561 18.2982 5.28399 18.3346 5.14004 18.3346Z" fill="white"/>
<path d="M15.5971 18.3346H11.0216C10.9299 18.3339 10.84 18.3086 10.7614 18.2614C10.6828 18.2141 10.6183 18.1466 10.5747 18.0659C10.5311 17.9853 10.51 17.8943 10.5135 17.8027C10.517 17.7111 10.5451 17.622 10.5948 17.5449L20.4586 2.15378C20.5541 2.00546 20.6792 1.87848 20.8261 1.78079C20.973 1.6831 21.1385 1.61683 21.3122 1.58611L27.0658 0.510523C27.1107 0.500983 27.1575 0.505076 27.2 0.522277C27.2426 0.539478 27.2791 0.569003 27.3047 0.607067C27.3304 0.645131 27.3442 0.689998 27.3442 0.735915C27.3442 0.781833 27.3305 0.826707 27.3048 0.864784L16.327 17.9376C16.2492 18.0605 16.1413 18.1614 16.0136 18.2309C15.8859 18.3003 15.7425 18.336 15.5971 18.3346Z" fill="white"/>
<path d="M5.14004 18.3346H0.64562C0.545937 18.3349 0.448001 18.3084 0.362106 18.2578C0.276211 18.2072 0.205529 18.1344 0.15749 18.0471C0.109451 17.9598 0.0858285 17.8611 0.0891063 17.7615C0.092384 17.6618 0.122441 17.5649 0.176117 17.4809L9.993 2.15378C10.0885 2.00546 10.2136 1.87848 10.3605 1.78079C10.5074 1.6831 10.6729 1.61683 10.8466 1.58611L16.6002 0.510523C16.6451 0.500983 16.6918 0.505076 16.7344 0.522277C16.777 0.539478 16.8135 0.569003 16.8391 0.607067C16.8648 0.645131 16.8785 0.689998 16.8786 0.735915C16.8786 0.781833 16.8649 0.826707 16.8392 0.864784L5.86137 17.9376C5.78436 18.0592 5.67784 18.1594 5.55173 18.2288C5.42561 18.2982 5.28399 18.3346 5.14004 18.3346Z" fill="white"/>
</g>
<defs>
<clipPath id="clip0_491_58">
<rect width="27.2696" height="17.9265" fill="white" transform="translate(0.0907288 0.408081)"/>
</clipPath>
</defs>
</svg>
