<svg width="28" height="28" viewBox="0 0 28 28" fill="none" xmlns="http://www.w3.org/2000/svg">
<g clip-path="url(#clip0_491_36)">
<path d="M0.77475 14.371C0.774457 7.26649 6.53159 1.50818 13.6342 1.50818C20.7372 1.50847 26.4955 7.26759 26.4963 14.3721C26.4966 21.4758 20.7394 27.2345 13.6364 27.2345C6.53342 27.2342 0.775482 21.4747 0.77475 14.371Z" fill="white"/>
<path d="M2.33282 14.3121L2.70101 14.3118V14.3109C2.70101 11.2808 3.92785 8.5409 5.91305 6.5546C7.89861 4.56903 10.6381 3.34219 13.6679 3.34219V3.00181L13.6628 3.34182L13.6679 3.34211V3.00173L13.6628 3.34175L13.6657 3.34204H13.6683C19.7261 3.34175 24.6374 8.25416 24.6378 14.3126V14.3132C24.6378 17.3437 23.411 20.0836 21.4258 22.0699C19.4398 24.0554 16.7003 25.2823 13.6706 25.2826L13.653 25.2829L13.6702 25.6504V25.2826C7.61247 25.2826 2.70109 20.3701 2.70109 14.3117V14.3114L2.33289 14.3117H1.96469C1.96528 20.7771 7.20547 26.0182 13.6702 26.0186H13.679L13.6877 26.0183L13.6706 25.6582V26.0187L13.6877 26.0184L13.6706 25.6582V26.0187C20.1349 26.0187 25.3738 20.7783 25.3742 14.3133V14.3124C25.373 7.84699 20.1331 2.6062 13.6684 2.60547V2.97367L13.6739 2.60547H13.668C7.20404 2.60576 1.96509 7.84589 1.96472 14.3106V14.312V14.3118H2.33292" fill="#121212"/>
<path d="M14.4175 11.7025L15.8211 11.7028V10.286H14.4175M10.9676 6.51874L12.7042 6.51903L12.7045 11.7024H13.9669L13.9663 4.35742H13.0271C12.8555 5.23875 11.9368 5.58499 10.9676 5.57438V6.51866M16.4701 20.1731H17.6717L17.6714 14.6644H17.7014L20.9837 20.1735H22.3163L22.316 12.6814H21.1145L21.1147 18.2011H21.0946L17.8024 12.6814L16.4695 12.6811M16.1704 15.0631C16.0189 13.4472 14.7364 12.5131 13.1107 12.5025C10.9498 12.5025 9.65743 14.286 9.65779 16.4268C9.65779 18.5675 10.9505 20.3514 13.1114 20.3514C14.8583 20.3514 16.08 19.1132 16.1807 17.3191H14.9487C14.8481 18.4101 14.2321 19.2812 13.111 19.2812C11.5661 19.2812 10.9198 17.8644 10.9198 16.4268C10.9198 14.9895 11.5658 13.5727 13.1107 13.5727C14.1607 13.573 14.6962 14.2026 14.9081 15.0631H16.1704ZM4.86463 20.1724L6.12697 20.1727L6.12668 16.8465H9.38812V15.776H6.12668L6.12638 13.8138H9.84241L9.84211 12.6807L4.86412 12.6804" fill="#121212"/>
</g>
<defs>
<clipPath id="clip0_491_36">
<rect width="27.2696" height="27.2696" fill="white" transform="translate(0.000732422 0.736572)"/>
</clipPath>
</defs>
</svg>
