<svg width="28" height="5" viewBox="0 0 28 5" fill="none" xmlns="http://www.w3.org/2000/svg">
<path d="M23.6822 4.14135H24.4112V1.65744H24.4211L25.2889 4.1414H25.8889L26.7564 1.63251H26.7665V4.1414H27.4953V0.601233H26.3995L25.6159 3.03577H25.6063L24.778 0.601233H23.6823V4.14135H23.6822ZM22.7155 0.601233H21.9372V2.80281C21.9372 3.33308 21.7585 3.57133 21.2033 3.57133C20.5734 3.57133 20.4746 3.18945 20.4746 2.80281V0.601233H19.6957V2.80281C19.6957 3.76958 20.2464 4.22576 21.2033 4.22576C22.1502 4.22576 22.7154 3.75973 22.7154 2.80281V0.601233H22.7155ZM16.2004 4.14135H18.8879V3.48692H16.9791V2.61917H18.6945V2.01434H16.9791V1.25587H18.8484V0.601233H16.2005V4.14135H16.2004ZM12.462 2.9665C12.4473 3.83885 13.1861 4.22576 13.9695 4.22576C14.9364 4.22576 15.4422 3.73984 15.4422 3.09044C15.4422 2.29218 14.6538 2.11865 14.3908 2.05916C13.5034 1.83599 13.3348 1.7962 13.3348 1.52365C13.3348 1.22597 13.6223 1.12193 13.8703 1.12193C14.2471 1.12193 14.5446 1.23581 14.5695 1.65744H15.3229C15.3229 0.839273 14.6438 0.51709 13.9049 0.51709C13.2655 0.51709 12.5813 0.859173 12.5813 1.58816C12.5813 2.24259 13.1117 2.46576 13.6373 2.59451C14.1529 2.73814 14.6886 2.79276 14.6886 3.17966C14.6886 3.54165 14.2718 3.62098 13.9994 3.62098C13.5827 3.62098 13.2159 3.43739 13.2159 2.96655H12.462V2.9665ZM12.031 0.601233H11.2675L10.6873 3.04059H10.6775L10.0724 0.601233H9.34369L8.7288 3.0109H8.71896L8.15868 0.601233H7.38015L8.31723 4.14135H9.10555L9.69562 1.73174H9.70546L10.3056 4.14135H11.079L12.031 0.601233ZM4.1971 4.14135H6.88444V3.48692H4.97568V2.61917H6.69096V2.01434H4.97568V1.25587H6.84486V0.601233H4.1971V4.14135ZM0.225677 4.14135H0.954509V1.77127H0.964351L2.43694 4.14135H3.21552V0.601233H2.48658V2.97634H2.47652L0.999121 0.601233H0.225677V4.14135Z" fill="white"/>
</svg>
