<svg width="28" height="11" viewBox="0 0 28 11" fill="none" xmlns="http://www.w3.org/2000/svg">
<g clip-path="url(#clip0_1067_88)">
<path opacity="0.904" fill-rule="evenodd" clip-rule="evenodd" d="M9.31435 0.397949C9.87316 0.397949 10.432 0.397949 10.9908 0.397949C10.9537 1.44372 10.991 2.48683 11.1025 3.52729C12.803 2.64744 14.0883 3.05724 14.9583 4.75668C15.1194 6.61305 15.1753 8.47576 15.126 10.3448C14.5672 10.3448 14.0084 10.3448 13.4496 10.3448C13.4682 8.70518 13.4496 7.06601 13.3937 5.42725C13.2226 4.85293 12.8314 4.59215 12.2202 4.64492C11.6454 4.64279 11.2542 4.90357 11.0467 5.42725C10.9908 7.02875 10.9722 8.63067 10.9908 10.233C10.432 10.233 9.87316 10.233 9.31435 10.233C9.31435 6.95467 9.31435 3.67631 9.31435 0.397949Z" fill="white"/>
<path opacity="0.91" fill-rule="evenodd" clip-rule="evenodd" d="M0.485123 10.3447C0.485123 9.78591 0.485123 9.2271 0.485123 8.66829C0.938275 8.70452 1.38532 8.66727 1.82627 8.55653C1.07295 7.13873 1.09157 5.72309 1.88215 4.30956C3.42933 2.83007 5.16165 2.58792 7.0791 3.58311C8.33857 4.71699 8.767 6.11402 8.36436 7.77419C7.92369 9.31306 6.89919 10.1326 5.2909 10.233C5.2909 9.7114 5.2909 9.18985 5.2909 8.66829C5.78074 8.68527 6.17191 8.49899 6.46441 8.10948C7.01209 7.04244 6.97483 5.99933 6.35264 4.98013C5.24635 4.17777 4.20324 4.25228 3.2233 5.20366C2.89462 6.04392 2.85737 6.90077 3.11154 7.77419C3.3735 8.31613 3.80191 8.61415 4.3968 8.66829C4.3968 9.2271 4.3968 9.78591 4.3968 10.3447C3.09291 10.3447 1.78902 10.3447 0.485123 10.3447Z" fill="white"/>
<path opacity="0.92" fill-rule="evenodd" clip-rule="evenodd" d="M16.1319 3.0802C16.6907 3.0802 17.2495 3.0802 17.8083 3.0802C17.779 3.24536 17.8162 3.39439 17.92 3.52725C19.1779 2.81665 20.3142 2.96567 21.3288 3.9743C22.3695 3.04549 23.543 2.84058 24.8493 3.35961C25.4584 3.78361 25.8496 4.36105 26.0228 5.09192C26.0416 6.32299 26.0975 7.55238 26.1905 8.78008C26.6671 8.67518 27.1514 8.63793 27.6434 8.66831C27.6434 9.22713 27.6434 9.78594 27.6434 10.3447C26.6003 10.3447 25.5571 10.3447 24.514 10.3447C24.5327 8.77963 24.514 7.21496 24.4581 5.65073C24.1284 4.65912 23.4765 4.37972 22.5023 4.81252C22.1929 5.00944 22.0253 5.28885 21.9994 5.65073C21.9435 7.21496 21.9248 8.77963 21.9435 10.3447C21.4219 10.3447 20.9004 10.3447 20.3788 10.3447C20.3666 8.95716 20.3666 7.57877 20.3788 6.20954C20.251 4.7314 19.506 4.30298 18.1436 4.92428C18.0076 5.10843 17.9145 5.31332 17.8642 5.53897C17.8083 7.14047 17.7896 8.74239 17.8083 10.3447C17.2495 10.3447 16.6907 10.3447 16.1319 10.3447C16.1319 7.92323 16.1319 5.50172 16.1319 3.0802Z" fill="white"/>
</g>
<defs>
<clipPath id="clip0_1067_88">
<rect width="27.27" height="10.0586" fill="white" transform="translate(0.429245 0.342041)"/>
</clipPath>
</defs>
</svg>
