<svg width="28" height="7" viewBox="0 0 28 7" fill="none" xmlns="http://www.w3.org/2000/svg">
<path fill-rule="evenodd" clip-rule="evenodd" d="M26.1225 1.46855V2.22547C25.7303 2.07743 25.3812 2.00258 25.0756 2.00258C24.8947 2.00258 24.7505 2.0361 24.6422 2.1009C24.5338 2.16625 24.4785 2.2467 24.4785 2.34166C24.4785 2.46791 24.6008 2.58018 24.8472 2.68074L25.5588 3.02707C26.1342 3.30135 26.4197 3.66556 26.4197 4.12307C26.4197 4.50348 26.2683 4.80681 25.9627 5.03136C25.6594 5.25817 25.251 5.37044 24.7427 5.37044C24.5081 5.37044 24.2975 5.36039 24.1104 5.33916C23.9232 5.31906 23.7082 5.27771 23.4696 5.2185V4.42639C23.907 4.57443 24.3053 4.64928 24.6639 4.64928C25.0918 4.64928 25.3047 4.52527 25.3047 4.27501C25.3047 4.15044 25.2175 4.04989 25.0405 3.97112L24.25 3.63428C23.9584 3.50245 23.7417 3.34269 23.5998 3.15332C23.4601 2.96228 23.3892 2.7433 23.3892 2.49305C23.3892 2.14279 23.5367 1.86069 23.8283 1.64618C24.1221 1.43335 24.512 1.32666 24.9969 1.32666C25.1544 1.32666 25.336 1.34062 25.5371 1.36632C25.7398 1.39369 25.9348 1.42721 26.1225 1.46855Z" fill="white"/>
<path fill-rule="evenodd" clip-rule="evenodd" d="M3.73561 1.46855V2.22547C3.34346 2.07743 2.99489 2.00258 2.68932 2.00258C2.50777 2.00258 2.36422 2.0361 2.25584 2.1009C2.14748 2.16625 2.09217 2.2467 2.09217 2.34166C2.09217 2.46791 2.21618 2.58018 2.46253 2.68074L3.1742 3.02707C3.74733 3.30135 4.03335 3.66556 4.03335 4.12307C4.03335 4.50348 3.88141 4.80681 3.57808 5.03136C3.27252 5.25817 2.86641 5.37044 2.3564 5.37044C2.12178 5.37044 1.91062 5.36039 1.72349 5.33916C1.53635 5.31906 1.32352 5.27771 1.08333 5.2185V4.42639C1.52239 4.57443 1.92068 4.64928 2.27707 4.64928C2.70497 4.64928 2.9178 4.52527 2.9178 4.27501C2.9178 4.15044 2.83122 4.04989 2.65581 3.97112L1.86538 3.63428C1.57154 3.50245 1.3548 3.34269 1.21516 3.15332C1.07326 2.96228 1.004 2.7433 1.004 2.49305C1.004 2.14279 1.15036 1.86069 1.44362 1.64618C1.73523 1.43335 2.12569 1.32666 2.61057 1.32666C2.76977 1.32666 2.94909 1.34062 3.15241 1.36632C3.35352 1.39369 3.54847 1.42721 3.73561 1.46855Z" fill="white"/>
<path fill-rule="evenodd" clip-rule="evenodd" d="M4.55118 1.39758H5.7103V5.29948H4.55118V1.39758Z" fill="white"/>
<path fill-rule="evenodd" clip-rule="evenodd" d="M9.44461 1.39758V2.11876H7.72241V2.98404H9.21614V3.63426H7.72241V4.54257H9.4798V5.29948H6.60687V1.39758H9.44461Z" fill="white"/>
<path fill-rule="evenodd" clip-rule="evenodd" d="M14.8559 1.39758V5.29948H13.7738V2.72596L12.651 5.33523H11.983L10.9032 2.72596V5.29948H10.1205V1.39758H11.5355L12.5013 3.7862L13.5119 1.39758H14.8559Z" fill="white"/>
<path fill-rule="evenodd" clip-rule="evenodd" d="M18.5885 1.39758V2.11876H16.8758V2.98404H18.3695V3.63426H16.8758V4.54257H18.6237V5.29948H15.7508V1.39758H18.5885Z" fill="white"/>
<path fill-rule="evenodd" clip-rule="evenodd" d="M22.6557 1.39758V5.29948H21.4263L20.0466 2.7969V5.29948H19.2644V1.39758H20.5297L21.8737 3.85716V1.39758H22.6557Z" fill="white"/>
</svg>
